<svg width="15" height="15" viewBox="0 0 15 15" fill="none" xmlns="http://www.w3.org/2000/svg">
<path fill-rule="evenodd" clip-rule="evenodd" d="M7.5 13.5C9.0913 13.5 10.6174 12.8679 11.7426 11.7426C12.8679 10.6174 13.5 9.0913 13.5 7.5C13.5 5.9087 12.8679 4.38258 11.7426 3.25736C10.6174 2.13214 9.0913 1.5 7.5 1.5C5.9087 1.5 4.38258 2.13214 3.25736 3.25736C2.13214 4.38258 1.5 5.9087 1.5 7.5C1.5 9.0913 2.13214 10.6174 3.25736 11.7426C4.38258 12.8679 5.9087 13.5 7.5 13.5ZM8.25 4.5C8.25 4.30109 8.17098 4.11032 8.03033 3.96967C7.88968 3.82902 7.69891 3.75 7.5 3.75C7.30109 3.75 7.11032 3.82902 6.96967 3.96967C6.82902 4.11032 6.75 4.30109 6.75 4.5V7.5C6.75004 7.6989 6.82909 7.88963 6.96975 8.03025L9.09075 10.152C9.16043 10.2217 9.24316 10.277 9.3342 10.3147C9.42525 10.3524 9.52283 10.3718 9.62138 10.3718C9.71992 10.3718 9.8175 10.3524 9.90855 10.3147C9.99959 10.277 10.0823 10.2217 10.152 10.152C10.2217 10.0823 10.277 9.99959 10.3147 9.90855C10.3524 9.8175 10.3718 9.71992 10.3718 9.62138C10.3718 9.52283 10.3524 9.42525 10.3147 9.3342C10.277 9.24316 10.2217 9.16043 10.152 9.09075L8.25 7.1895V4.5Z" fill="#3C3C43"/>
</svg>
